<svg width="146" height="101" viewBox="0 0 146 101" fill="none" xmlns="http://www.w3.org/2000/svg">
<path d="M83.6193 10.3096C83.6193 4.61577 79.0035 -7.62939e-06 73.3096 -7.62939e-06C67.6158 -7.62939e-06 63 4.61577 63 10.3096C63 16.0035 67.6158 20.6193 73.3096 20.6193C79.0035 20.6193 83.6193 16.0035 83.6193 10.3096Z" fill="#922C40"/>
<path d="M20.1193 50.3096C20.1193 44.8919 15.7273 40.5 10.3096 40.5C4.89192 40.5 0.5 44.8919 0.5 50.3096C0.5 55.7273 4.89192 60.1193 10.3096 60.1193C15.7273 60.1193 20.1193 55.7273 20.1193 50.3096Z" stroke="#922C40"/>
<path d="M145.119 50.3096C145.119 44.8919 140.727 40.5 135.31 40.5C129.892 40.5 125.5 44.8919 125.5 50.3096C125.5 55.7273 129.892 60.1193 135.31 60.1193C140.727 60.1193 145.119 55.7273 145.119 50.3096Z" stroke="#922C40"/>
<path fill-rule="evenodd" clip-rule="evenodd" d="M133.189 25.9361C129.435 22.4479 123.582 22.2219 119.554 25.6013C115.527 28.9807 114.733 34.7839 117.516 39.0874C117.205 38.7978 116.907 38.4858 116.627 38.1514C112.967 33.7897 113.536 27.2868 117.898 23.6269C122.259 19.9669 128.762 20.5359 132.422 24.8976C132.703 25.2319 132.958 25.5789 133.189 25.9361Z" fill="#922C40"/>
<path fill-rule="evenodd" clip-rule="evenodd" d="M11.0635 26.6824C14.8183 23.1941 20.6713 22.9681 24.6987 26.3475C28.7261 29.7269 29.5199 35.53 26.7368 39.8335C27.0484 39.5439 27.3456 39.2319 27.6261 38.8976C31.2861 34.5359 30.7172 28.033 26.3554 24.3731C21.9937 20.7132 15.4908 21.2821 11.8309 25.6438C11.5503 25.9782 11.2946 26.3251 11.0635 26.6824Z" fill="#922C40"/>
<path fill-rule="evenodd" clip-rule="evenodd" d="M106.118 24.526C102.839 21.8265 101.449 17.2568 102.985 13.0386C104.52 8.82044 108.522 6.21313 112.769 6.25272C111.889 5.5281 110.872 4.93824 109.74 4.52612C104.39 2.57871 98.4735 5.33743 96.5261 10.6879C94.5787 16.0384 97.3374 21.9545 102.688 23.9019C103.82 24.314 104.978 24.5154 106.118 24.526Z" fill="#922C40"/>
<path fill-rule="evenodd" clip-rule="evenodd" d="M33.4848 8.23748C37.6712 7.52237 42.0372 9.4594 44.2244 13.3794C46.4115 17.2994 45.7669 22.0321 42.9598 25.219C44.0835 25.0271 45.1943 24.644 46.2466 24.0569C51.2189 21.2826 53.0007 15.0028 50.2264 10.0305C47.4521 5.05828 41.1723 3.27646 36.2001 6.05074C35.1478 6.63786 34.2384 7.38198 33.4848 8.23748Z" fill="#922C40"/>
<path d="M57.7266 81.1172C57.5703 80.4141 57.375 79.4961 57.1406 78.3633C56.9062 77.1914 56.5938 75.9414 56.2031 74.6133C55.8516 73.2461 55.4023 71.8789 54.8555 70.5117C54.3477 69.1445 53.7227 67.9141 52.9805 66.8203C52.2383 65.6875 51.3789 64.7695 50.4023 64.0664C49.4648 63.3633 48.3516 63.0117 47.0625 63.0117C46.5547 63.0117 45.8906 63.0508 45.0703 63.1289C44.25 63.207 43.4492 63.3438 42.668 63.5391C41.8867 63.6953 41.2031 63.9297 40.6172 64.2422C40.0312 64.5547 39.7383 64.9258 39.7383 65.3555V80.2383C39.582 80.2383 39.3477 80.1992 39.0352 80.1211C38.7227 80.043 38.4102 79.9453 38.0977 79.8281C37.7852 79.6719 37.5117 79.5156 37.2773 79.3594C37.043 79.2031 36.9258 79.0273 36.9258 78.832V49.5938C36.457 49.6719 36.0469 49.8867 35.6953 50.2383C35.3438 50.5508 35.0508 50.9414 34.8164 51.4102C34.6211 51.8789 34.4648 52.3477 34.3477 52.8164C34.2305 53.2852 34.1523 53.7148 34.1133 54.1055C33.957 54.1055 33.7422 54.0273 33.4688 53.8711C33.1953 53.6758 32.9414 53.4609 32.707 53.2266C32.4727 52.9922 32.2773 52.7578 32.1211 52.5234C31.9258 52.25 31.8281 52.0156 31.8281 51.8203C31.8281 50.8438 32.1211 49.9062 32.707 49.0078C33.293 48.0703 34.0547 47.2305 34.9922 46.4883C35.9297 45.707 36.9648 45.0234 38.0977 44.4375C39.2695 43.8125 40.4414 43.2852 41.6133 42.8555C42.7852 42.4258 43.8984 42.0938 44.9531 41.8594C46.0078 41.625 46.9062 41.5078 47.6484 41.5078C48.7422 41.5078 49.7773 41.5469 50.7539 41.625C51.7305 41.7031 52.5703 41.9375 53.2734 42.3281C54.0156 42.6797 54.6016 43.2461 55.0312 44.0273C55.4609 44.8086 55.6758 45.8633 55.6758 47.1914C55.6758 48.4023 55.4609 49.5938 55.0312 50.7656C54.6016 51.8984 54.0547 52.9922 53.3906 54.0469C52.7266 55.1016 51.9844 56.1172 51.1641 57.0938C50.3438 58.0312 49.5234 58.9102 48.7031 59.7305C50.5391 60.8633 52.0234 62.0156 53.1562 63.1875C54.2891 64.3203 55.207 65.4727 55.9102 66.6445C56.6133 67.7773 57.1406 68.9297 57.4922 70.1016C57.8828 71.2344 58.1758 72.4062 58.3711 73.6172C58.6055 74.8281 58.8203 76.0586 59.0156 77.3086C59.25 78.5586 59.5625 79.8281 59.9531 81.1172H57.7266ZM47.8828 43.8516C47.6094 43.8516 47.2188 43.8711 46.7109 43.9102C46.2422 43.9102 45.6953 43.9492 45.0703 44.0273C44.4453 44.1055 43.8203 44.2227 43.1953 44.3789C42.6094 44.5352 42.043 44.75 41.4961 45.0234C40.9883 45.2969 40.5586 45.6289 40.207 46.0195C39.8945 46.3711 39.7383 46.8203 39.7383 47.3672V62.25C40.6758 62.25 41.6523 62.0156 42.668 61.5469C43.6836 61.0781 44.6797 60.4531 45.6562 59.6719C46.6719 58.8516 47.6484 57.9531 48.5859 56.9766C49.5234 55.9609 50.3438 54.9258 51.0469 53.8711C51.75 52.8164 52.3164 51.7617 52.7461 50.707C53.1758 49.6523 53.3906 48.7148 53.3906 47.8945C53.3906 46.9961 53.2344 46.293 52.9219 45.7852C52.6484 45.2383 52.2578 44.8281 51.75 44.5547C51.2422 44.2422 50.6562 44.0469 49.9922 43.9688C49.3281 43.8906 48.625 43.8516 47.8828 43.8516Z" fill="#922C40"/>
<path d="M98.7568 41.2373C100.371 41.2373 101.767 41.7171 102.944 42.6768C104.166 43.5928 105.213 44.8359 106.085 46.4062C107.001 47.9766 107.764 49.7868 108.375 51.8369C108.986 53.887 109.487 56.0462 109.88 58.3145C110.272 60.5391 110.578 62.8073 110.796 65.1191C111.014 67.3874 111.167 69.5247 111.254 71.5312C111.341 73.5378 111.385 75.348 111.385 76.9619C111.428 78.5758 111.45 79.8408 111.45 80.7568H109.88L107.394 66.9512C107.175 66.7331 106.674 66.6022 105.889 66.5586C105.147 66.515 104.253 66.5368 103.206 66.624C102.203 66.7113 101.09 66.8421 99.8691 67.0166C98.6914 67.1475 97.5573 67.2565 96.4668 67.3438C95.4199 67.3874 94.4603 67.4092 93.5879 67.4092C92.7155 67.3656 92.083 67.2129 91.6904 66.9512V80.7568H88.3535C88.3535 80.626 88.3535 80.3861 88.3535 80.0371C88.3971 79.6445 88.4189 79.252 88.4189 78.8594C88.4189 78.4668 88.4408 78.096 88.4844 77.7471C88.528 77.3981 88.5498 77.1582 88.5498 77.0273C88.8115 74.4974 89.0078 71.9456 89.1387 69.3721C89.3132 66.7549 89.5094 64.2249 89.7275 61.7822C89.9456 59.3395 90.2292 57.0059 90.5781 54.7812C90.9707 52.5566 91.516 50.5501 92.2139 48.7617C92.9118 46.9297 93.7842 45.3812 94.8311 44.1162C95.8779 42.8076 97.1865 41.848 98.7568 41.2373ZM99.8037 44.2471C98.6696 44.2471 97.71 44.6615 96.9248 45.4902C96.1833 46.2754 95.5726 47.3223 95.0928 48.6309C94.613 49.8958 94.2422 51.3135 93.9805 52.8838C93.7188 54.4541 93.5443 56.0026 93.457 57.5293C93.3698 59.0124 93.3044 60.4082 93.2607 61.7168C93.2607 62.9818 93.2607 63.9632 93.2607 64.6611C95.3981 64.6611 97.5791 64.5085 99.8037 64.2031C102.028 63.8542 104.122 63.5052 106.085 63.1562C106.129 62.9818 106.15 62.6982 106.15 62.3057C106.194 61.9131 106.216 61.4769 106.216 60.9971C106.259 60.5173 106.281 60.0592 106.281 59.623C106.325 59.1868 106.347 58.9033 106.347 58.7725C106.347 57.333 106.259 55.959 106.085 54.6504C105.954 53.3418 105.649 52.0768 105.169 50.8555C104.733 49.5905 104.078 48.4128 103.206 47.3223C102.377 46.2318 101.243 45.2067 99.8037 44.2471Z" fill="#922C40"/>
<circle cx="73.5" cy="49.5" r="1.5" fill="#922C40"/>
<circle cx="73.5" cy="54.5" r="2.5" fill="#922C40"/>
<circle cx="73.5" cy="46.5" r="0.5" fill="#922C40"/>
<circle r="1.5" transform="matrix(1 0 0 -1 73.5 75.5)" fill="#922C40"/>
<circle r="2.5" transform="matrix(1 0 0 -1 73.5 70.5)" fill="#922C40"/>
<circle r="0.5" transform="matrix(1 0 0 -1 73.5 78.5)" fill="#922C40"/>
<path d="M73.5 58L74.5103 61.1094H77.7798L75.1347 63.0312L76.145 66.1406L73.5 64.2188L70.855 66.1406L71.8653 63.0312L69.2202 61.1094H72.4897L73.5 58Z" fill="#922C40"/>
<line x1="6.5" y1="95.5" x2="139.5" y2="95.5" stroke="#922C40" stroke-linecap="round"/>
<line x1="28.5" y1="100.5" x2="120.5" y2="100.5" stroke="#922C40" stroke-linecap="round"/>
</svg>
